<svg xmlns="http://www.w3.org/2000/svg" xmlns:xlink="http://www.w3.org/1999/xlink" width="500" zoomAndPan="magnify" viewBox="0 0 375 374.999991" height="500" preserveAspectRatio="xMidYMid meet" version="1.0"><defs><g/><clipPath id="f9cfc9e75e"><path d="M 3 79 L 233 79 L 233 310 L 3 310 Z M 3 79 " clip-rule="nonzero"/></clipPath><clipPath id="a5525dfb63"><path d="M 40.464844 51.988281 L 260.84375 116.050781 L 196.367188 337.867188 L -24.011719 273.808594 Z M 40.464844 51.988281 " clip-rule="nonzero"/></clipPath><clipPath id="2f3936e299"><path d="M 40.464844 51.988281 L 260.84375 116.050781 L 196.367188 337.867188 L -24.011719 273.808594 Z M 40.464844 51.988281 " clip-rule="nonzero"/></clipPath><clipPath id="50fa662ad0"><path d="M 329 135.066406 L 355.585938 135.066406 L 355.585938 168.816406 L 329 168.816406 Z M 329 135.066406 " clip-rule="nonzero"/></clipPath><clipPath id="a2cc840832"><path d="M 327.085938 135.066406 L 337 135.066406 L 337 148 L 327.085938 148 Z M 327.085938 135.066406 " clip-rule="nonzero"/></clipPath><clipPath id="6bfada0fa7"><path d="M 349 143 L 355.585938 143 L 355.585938 151 L 349 151 Z M 349 143 " clip-rule="nonzero"/></clipPath><clipPath id="f253e40ad1"><path d="M 304 101 L 330.789062 101 L 330.789062 134.710938 L 304 134.710938 Z M 304 101 " clip-rule="nonzero"/></clipPath><clipPath id="ce2577e957"><path d="M 302.289062 101 L 312 101 L 312 114 L 302.289062 114 Z M 302.289062 101 " clip-rule="nonzero"/></clipPath><clipPath id="d2be33609a"><path d="M 324 109 L 330.789062 109 L 330.789062 117 L 324 117 Z M 324 109 " clip-rule="nonzero"/></clipPath><clipPath id="934d20a505"><path d="M 275 118.015625 L 302.179688 118.015625 L 302.179688 151.765625 L 275 151.765625 Z M 275 118.015625 " clip-rule="nonzero"/></clipPath><clipPath id="8cc439405d"><path d="M 273.679688 118.015625 L 284 118.015625 L 284 131 L 273.679688 131 Z M 273.679688 118.015625 " clip-rule="nonzero"/></clipPath></defs><rect x="-37.5" width="450" fill="#ffffff" y="-37.499999" height="449.999989" fill-opacity="1"/><rect x="-37.5" width="450" fill="#111b1d" y="-37.499999" height="449.999989" fill-opacity="1"/><g clip-path="url(#f9cfc9e75e)"><g clip-path="url(#a5525dfb63)"><g clip-path="url(#2f3936e299)"><path fill="#3edde9" d="M 213.554688 133.429688 C 222.152344 146.957031 228.023438 162.257812 230.453125 178.105469 C 230.621094 178.597656 230.792969 179.535156 230.984375 180.695312 C 231.089844 181.257812 231.167969 181.902344 231.277344 182.597656 C 231.382812 183.292969 231.4375 184.015625 231.492188 184.742188 C 231.546875 185.464844 231.644531 186.203125 231.6875 186.96875 C 231.742188 187.691406 231.839844 188.429688 231.851562 189.140625 C 231.933594 190.535156 232.039062 191.851562 232.105469 192.84375 C 232.066406 191.152344 232.054688 189.507812 231.953125 187.886719 C 231.847656 186.261719 231.691406 184.667969 231.566406 183.125 C 231.398438 181.570312 231.1875 180.003906 231.007812 178.488281 L 230.855469 177.339844 L 230.652344 176.214844 C 230.515625 175.46875 230.378906 174.71875 230.242188 173.972656 C 229.425781 169.617188 228.328125 165.3125 226.960938 160.886719 C 229.128906 167.582031 230.664062 174.492188 231.554688 181.480469 C 231.378906 180.101562 231.152344 178.753906 230.976562 177.375 C 230.710938 176.011719 230.453125 174.609375 230.183594 173.246094 C 229.96875 171.855469 229.578125 170.457031 229.269531 169.085938 C 228.921875 167.699219 228.621094 166.285156 228.179688 164.914062 C 226.65625 159.335938 224.585938 153.820312 222.167969 148.421875 C 217.308594 137.578125 210.480469 127.402344 202.300781 118.515625 C 199.285156 115.335938 196.566406 112.199219 193.136719 109.078125 C 192.296875 108.300781 191.429688 107.472656 190.5 106.714844 C 189.570312 105.957031 188.554688 105.175781 187.515625 104.34375 C 186.472656 103.507812 185.355469 102.785156 184.167969 101.996094 C 182.980469 101.210938 181.710938 100.398438 180.335938 99.644531 C 186.910156 103.988281 193.054688 109.050781 198.628906 114.703125 C 204.285156 120.375 209.28125 126.65625 213.554688 133.429688 Z M 226.71875 159.886719 C 226.582031 159.445312 226.414062 158.957031 226.234375 158.503906 C 226.414062 158.957031 226.550781 159.394531 226.71875 159.886719 Z M 229.03125 221.085938 C 229.203125 220.339844 229.347656 219.539062 229.519531 218.792969 C 229.375 219.59375 229.179688 220.421875 229.035156 221.222656 C 228.957031 221.640625 228.894531 222.019531 228.773438 222.429688 C 228.667969 222.796875 228.589844 223.21875 228.484375 223.585938 C 228.085938 225.105469 227.6875 226.628906 227.28125 228.019531 C 227.691406 226.453125 228.089844 224.933594 228.488281 223.410156 C 228.597656 223.042969 228.714844 222.632812 228.78125 222.253906 C 228.859375 221.832031 228.925781 221.453125 229.03125 221.085938 Z M 162.601562 92.71875 C 149.214844 86.96875 134.53125 83.714844 119.46875 83.589844 C 127.652344 83.621094 136.109375 84.53125 144.378906 86.402344 C 152.644531 88.273438 160.644531 91.21875 167.921875 94.972656 C 166.167969 94.152344 164.378906 93.457031 162.601562 92.71875 Z M 198.078125 117.820312 C 193.015625 112.539062 187.347656 107.660156 181.140625 103.421875 C 187.277344 107.59375 193.007812 112.40625 198.058594 117.726562 C 203.152344 123.058594 207.585938 128.820312 211.222656 134.746094 C 207.535156 128.847656 203.128906 123.140625 198.078125 117.820312 Z M 30.234375 139.078125 C 22.796875 150.644531 17.445312 163.878906 14.757812 178.152344 C 14.804688 177.679688 14.949219 177.1875 15.039062 176.726562 C 15.128906 176.265625 15.230469 175.765625 15.320312 175.304688 C 15.511719 174.339844 15.703125 173.378906 15.945312 172.386719 C 16.179688 171.4375 16.464844 170.457031 16.707031 169.464844 C 16.851562 168.972656 16.953125 168.472656 17.09375 167.984375 C 17.234375 167.492188 17.335938 166.992188 17.519531 166.511719 C 18.132812 164.566406 18.4375 162.75 18.667969 161.800781 C 20.601562 156.824219 22.796875 152.015625 25.773438 146.503906 C 26.195312 145.65625 27.175781 143.8125 28.023438 142.113281 C 28.738281 141.167969 29.480469 140.144531 30.234375 139.078125 Z M 134.863281 82.574219 C 134.484375 82.507812 134.09375 82.480469 133.714844 82.417969 C 134.648438 82.554688 135.550781 82.640625 136.472656 82.820312 C 135.917969 82.746094 135.363281 82.675781 134.863281 82.574219 Z M 77.726562 88.722656 C 77.777344 88.695312 77.871094 88.679688 77.925781 88.648438 C 77.871094 88.679688 77.777344 88.695312 77.726562 88.722656 Z M 75.777344 89.484375 C 74.96875 89.828125 74.164062 90.167969 73.300781 90.539062 C 74.109375 90.195312 74.929688 89.816406 75.777344 89.484375 Z M 226.367188 232.84375 C 226.078125 233.6875 225.703125 234.511719 225.363281 235.386719 C 225.019531 236.261719 224.625 237.164062 224.226562 238.066406 C 224.058594 238.503906 223.875 238.980469 223.648438 239.449219 C 223.425781 239.914062 223.214844 240.339844 222.988281 240.804688 C 222.542969 241.738281 222.09375 242.671875 221.6875 243.617188 L 221.351562 244.316406 C 221.238281 244.546875 221.125 244.78125 220.972656 245.003906 C 220.707031 245.457031 220.484375 245.921875 220.21875 246.378906 C 219.730469 247.296875 219.230469 248.257812 218.738281 249.179688 C 218.210938 250.089844 217.679688 250.996094 217.140625 251.945312 C 216.609375 252.855469 216.078125 253.765625 215.507812 254.660156 C 214.949219 255.515625 214.351562 256.359375 213.792969 257.21875 C 213.234375 258.074219 212.6875 258.886719 212.097656 259.691406 C 211.511719 260.496094 210.933594 261.257812 210.371094 261.980469 C 209.804688 262.699219 209.269531 263.476562 208.691406 264.101562 C 207.546875 265.453125 206.515625 266.703125 205.496094 267.78125 C 206.261719 266.671875 207.035156 265.527344 207.8125 264.378906 C 207.371094 264.828125 206.664062 265.59375 205.851562 266.554688 C 205.644531 266.804688 205.441406 267.054688 205.195312 267.292969 C 204.949219 267.53125 204.730469 267.824219 204.484375 268.0625 C 203.980469 268.578125 203.464844 269.136719 202.933594 269.734375 C 202.417969 270.292969 201.890625 270.894531 201.320312 271.480469 C 200.761719 272.027344 200.207031 272.574219 199.648438 273.121094 C 198.585938 274.183594 197.589844 275.179688 196.703125 275.9375 C 197.039062 275.550781 197.402344 275.210938 197.789062 274.792969 C 198.164062 274.414062 198.550781 273.996094 198.929688 273.617188 C 199.691406 272.824219 200.535156 272.050781 201.351562 271.222656 C 199.691406 272.824219 199.691406 272.824219 198.082031 274.390625 C 199.515625 272.816406 201.253906 271.105469 202.886719 269.144531 C 203.296875 268.644531 203.746094 268.15625 204.160156 267.65625 C 204.363281 267.40625 204.570312 267.15625 204.816406 266.917969 C 205.023438 266.667969 205.238281 266.375 205.445312 266.125 C 206.277344 265.085938 207.125 264.003906 207.972656 262.917969 C 211.246094 258.511719 214.367188 253.710938 216.804688 249.28125 C 217.136719 248.757812 217.394531 248.167969 217.683594 247.632812 C 217.972656 247.097656 218.21875 246.550781 218.507812 246.011719 C 218.757812 245.464844 219.035156 244.96875 219.269531 244.464844 C 219.503906 243.957031 219.769531 243.5 219.964844 242.984375 C 220.792969 241.054688 221.546875 239.367188 222.085938 237.976562 C 223.066406 235.207031 223.441406 233.765625 222.902344 234.40625 C 221.851562 235.738281 218.738281 243.554688 213.179688 252.613281 C 210.371094 257.109375 206.925781 261.953125 203.128906 266.472656 C 202.136719 267.601562 201.199219 268.699219 200.207031 269.828125 C 199.183594 270.90625 198.175781 271.9375 197.167969 272.972656 C 196.910156 273.253906 196.664062 273.492188 196.402344 273.769531 C 196.15625 274.007812 195.859375 274.277344 195.613281 274.515625 C 195.066406 275.019531 194.574219 275.496094 194.039062 275.960938 C 193.546875 276.4375 193.015625 276.902344 192.519531 277.378906 C 191.988281 277.84375 191.464844 278.269531 190.945312 278.691406 C 191.371094 278.285156 191.789062 277.921875 192.214844 277.511719 C 192.644531 277.105469 193.03125 276.6875 193.460938 276.28125 C 194.277344 275.453125 195.105469 274.589844 195.972656 273.734375 C 196.800781 272.867188 197.597656 271.949219 198.4375 271.042969 C 198.835938 270.582031 199.277344 270.132812 199.675781 269.675781 C 200.074219 269.214844 200.472656 268.753906 200.886719 268.253906 C 201.695312 267.292969 202.453125 266.363281 203.265625 265.402344 C 204.035156 264.433594 204.773438 263.40625 205.542969 262.4375 C 205.914062 261.921875 206.3125 261.464844 206.683594 260.953125 C 207.054688 260.4375 207.425781 259.925781 207.753906 259.402344 L 208.824219 257.855469 C 209.195312 257.34375 209.566406 256.828125 209.894531 256.304688 L 211.933594 253.089844 L 212.429688 252.304688 L 212.894531 251.464844 L 213.8125 249.828125 C 215.113281 247.636719 216.171875 245.378906 217.308594 243.140625 C 219.378906 238.605469 221.273438 234.0625 222.601562 229.492188 C 222.214844 230.527344 221.847656 231.484375 221.503906 232.359375 C 221.121094 233.222656 220.738281 234.085938 220.300781 234.976562 C 220.078125 235.441406 219.90625 235.878906 219.667969 236.386719 C 219.433594 236.894531 219.238281 237.414062 218.949219 237.949219 C 218.414062 239.03125 217.828125 240.28125 217.183594 241.730469 C 217.003906 242.210938 216.738281 242.664062 216.523438 243.089844 L 215.824219 244.433594 L 214.421875 247.128906 L 212.910156 249.742188 L 212.125 251.066406 C 211.859375 251.519531 211.609375 251.933594 211.355469 252.347656 C 209.171875 255.742188 206.910156 259.113281 204.394531 262.277344 C 199.476562 268.6875 194.546875 274.070312 188.714844 278.441406 C 188.179688 278.90625 187.648438 279.371094 187.085938 279.785156 C 185.976562 280.703125 185.003906 281.613281 183.894531 282.53125 C 183.59375 282.800781 183.265625 283.015625 182.992188 283.199219 C 182.703125 283.425781 182.386719 283.601562 182.152344 283.796875 C 181.601562 284.167969 181.105469 284.511719 180.617188 284.8125 C 180.132812 285.113281 179.6875 285.429688 179.292969 285.710938 C 178.863281 285.984375 178.429688 286.257812 178.007812 286.488281 C 177.140625 287.035156 176.273438 287.578125 175.234375 288.253906 C 174.738281 288.59375 174.15625 288.914062 173.515625 289.300781 C 172.871094 289.691406 172.214844 290.117188 171.464844 290.566406 C 171.382812 290.542969 171.5625 290.371094 171.902344 290.117188 C 171.457031 290.429688 170.929688 290.71875 170.339844 291.078125 C 169.761719 291.398438 169.140625 291.703125 168.507812 292.050781 C 167.875 292.398438 167.253906 292.707031 166.621094 293.054688 C 166.304688 293.226562 166.042969 293.371094 165.726562 293.546875 C 165.421875 293.679688 165.148438 293.863281 164.882812 294.011719 C 164.71875 293.960938 164.554688 293.914062 164.078125 294.042969 C 150.023438 300.496094 134.460938 304.074219 118.644531 303.949219 C 117.460938 303.914062 116.304688 303.933594 115.117188 303.898438 C 113.945312 303.820312 112.8125 303.757812 111.636719 303.683594 C 111.070312 303.652344 110.464844 303.609375 109.898438 303.574219 C 109.34375 303.503906 108.734375 303.460938 108.179688 303.386719 C 107.019531 303.269531 105.910156 303.125 104.75 303.007812 C 103.773438 302.859375 102.800781 302.707031 101.824219 302.558594 C 100.851562 302.40625 99.863281 302.296875 98.859375 302.09375 C 97.855469 301.890625 96.894531 301.699219 95.902344 301.457031 C 94.898438 301.253906 93.894531 301.050781 92.914062 300.765625 C 91.921875 300.519531 90.960938 300.328125 90.121094 300.171875 C 89.277344 300.019531 88.589844 299.949219 88.101562 299.808594 C 86.859375 299.359375 85.5625 298.9375 84.28125 298.476562 C 83.953125 298.382812 83.640625 298.246094 83.3125 298.152344 C 82.996094 298.015625 82.683594 297.878906 82.367188 297.742188 C 81.738281 297.472656 81.097656 297.242188 80.425781 296.957031 C 79.796875 296.6875 79.117188 296.445312 78.445312 296.160156 C 77.773438 295.875 77.15625 295.5625 76.457031 295.226562 C 75.800781 294.902344 75.128906 294.621094 74.429688 294.285156 C 74.074219 294.136719 73.71875 293.988281 73.375 293.800781 C 73.03125 293.613281 72.6875 293.421875 72.332031 293.277344 C 71.894531 293.105469 71.195312 292.769531 70.375 292.398438 C 69.59375 292.035156 68.648438 291.628906 67.757812 291.195312 C 66.800781 290.515625 65.753906 289.859375 64.636719 289.136719 C 64.210938 288.921875 63.765625 288.617188 63.355469 288.363281 L 62.125 287.5625 C 61.296875 287.058594 60.484375 286.511719 59.613281 285.992188 C 58.8125 285.40625 57.996094 284.859375 57.234375 284.28125 L 56.015625 283.441406 L 55.433594 283.007812 L 54.851562 282.570312 C 51.734375 280.203125 48.730469 277.738281 45.933594 275.019531 L 45.921875 275.0625 C 45.222656 274.414062 44.496094 273.71875 43.769531 273.019531 C 43.042969 272.320312 42.339844 271.539062 41.625 270.800781 C 40.15625 269.3125 38.785156 267.628906 37.320312 265.960938 C 36.589844 265.128906 35.960938 264.238281 35.242188 263.367188 L 34.207031 262.046875 C 33.851562 261.589844 33.527344 261.183594 33.214844 260.738281 C 31.972656 258.917969 30.625 257.152344 29.488281 255.273438 C 28.917969 254.355469 28.332031 253.476562 27.757812 252.554688 C 27.222656 251.648438 26.691406 250.742188 26.199219 249.84375 C 25.421875 248.554688 24.738281 247.25 24.082031 245.996094 L 23.046875 243.925781 C 22.683594 243.199219 22.410156 242.457031 22.046875 241.730469 L 21.097656 239.507812 L 20.863281 238.949219 L 20.625 238.394531 L 20.203125 237.253906 C 20.277344 237.761719 20.230469 237.925781 20.152344 238.035156 C 20.300781 238.300781 20.390625 238.59375 20.523438 238.898438 C 20.65625 239.199219 20.789062 239.503906 20.964844 239.820312 C 21.210938 240.335938 21.449219 240.894531 21.699219 241.40625 C 20.75 239.492188 19.914062 237.789062 19.269531 236.363281 C 19.027344 235.671875 18.796875 234.941406 18.566406 234.210938 C 18.347656 233.4375 18.128906 232.664062 17.910156 231.894531 C 17.691406 231.121094 17.445312 230.296875 17.195312 229.472656 C 16.992188 228.660156 16.753906 227.792969 16.519531 226.929688 C 15.226562 222.699219 14.367188 218.332031 13.59375 213.988281 L 13.140625 210.671875 L 12.917969 209.011719 L 12.785156 207.335938 C 12.703125 206.246094 12.589844 205.109375 12.507812 204.019531 C 12.4375 202.894531 12.449219 201.789062 12.375 200.664062 C 12.28125 199.925781 12.183594 200.5625 12.078125 200.621094 C 12.019531 196.707031 12.285156 192.753906 12.640625 188.785156 C 13.199219 181.683594 14.511719 174.582031 16.527344 167.640625 C 16.683594 166.800781 16.921875 165.984375 17.160156 165.167969 C 17.398438 164.351562 17.59375 163.523438 17.832031 162.707031 C 18.042969 162.28125 18.238281 161.761719 18.484375 161.214844 C 18.734375 160.667969 18.992188 160.078125 19.277344 159.40625 L 20.007812 157.496094 C 20.242188 156.851562 20.472656 156.210938 20.773438 155.636719 C 21.316406 154.375 21.886719 153.167969 22.429688 151.910156 C 22.601562 151.472656 22.8125 151.046875 23.078125 150.59375 C 23.300781 150.128906 23.527344 149.660156 23.792969 149.207031 C 24.027344 148.699219 24.304688 148.203125 24.539062 147.699219 C 24.789062 147.148438 25.078125 146.613281 25.363281 146.078125 C 25.996094 144.976562 26.636719 143.835938 27.289062 142.652344 C 27.601562 142.035156 27.996094 141.441406 28.390625 140.847656 C 28.785156 140.253906 29.148438 139.605469 29.554688 138.972656 C 32.75 133.921875 36.859375 128.472656 41.570312 123.378906 C 42.210938 122.546875 42.753906 121.90625 43.074219 121.558594 C 43.773438 120.832031 44.5 120.15625 45.1875 119.472656 C 45.914062 118.796875 46.558594 118.097656 47.316406 117.476562 C 48.03125 116.84375 48.746094 116.210938 49.460938 115.578125 C 50.179688 114.945312 50.882812 114.351562 51.625 113.769531 C 52.265625 113.25 52.890625 112.765625 53.480469 112.273438 C 54.105469 111.792969 54.703125 111.257812 55.320312 110.816406 C 56.601562 109.90625 57.84375 108.980469 59.035156 108.085938 C 60.292969 107.257812 61.554688 106.429688 62.71875 105.617188 C 63.007812 105.390625 63.324219 105.214844 63.640625 105.042969 C 63.957031 104.867188 64.230469 104.683594 64.546875 104.507812 C 65.140625 104.148438 65.730469 103.789062 66.320312 103.429688 C 67.464844 102.699219 68.652344 102.117188 69.757812 101.507812 C 70.285156 101.21875 70.855469 100.941406 71.378906 100.652344 C 71.644531 100.507812 71.90625 100.359375 72.171875 100.214844 C 72.433594 100.070312 72.6875 99.96875 72.9375 99.863281 C 74.988281 98.910156 76.765625 97.964844 78.316406 97.351562 C 80.144531 96.554688 80.042969 96.4375 78.898438 96.726562 C 78.324219 96.867188 77.5 97.117188 76.488281 97.398438 C 75.507812 97.730469 74.363281 98.152344 73.210938 98.613281 C 72.617188 98.839844 72.019531 99.066406 71.421875 99.289062 C 70.8125 99.554688 70.257812 99.792969 69.703125 100.03125 C 68.578125 100.542969 67.476562 100.976562 66.566406 101.375 C 64.769531 102.226562 63.601562 102.730469 63.957031 102.433594 C 67.554688 99.496094 73.09375 96.277344 80.597656 93.320312 C 84.375 91.898438 88.570312 90.414062 93.289062 89.261719 C 95.605469 88.609375 98.128906 88.144531 100.691406 87.5625 C 103.296875 87.125 105.96875 86.617188 108.808594 86.292969 C 111.929688 85.914062 110.800781 85.984375 108.867188 86.085938 C 107.914062 86.164062 106.746094 86.222656 105.808594 86.257812 C 104.855469 86.335938 104.171875 86.402344 104.089844 86.378906 C 104.570312 86.253906 105.089844 86.140625 105.671875 85.957031 C 106.246094 85.8125 106.890625 85.734375 107.542969 85.613281 C 109.59375 85.414062 111.617188 85.160156 113.671875 85.09375 L 115.472656 84.996094 C 116.0625 84.945312 116.695312 84.90625 117.261719 84.941406 L 120.851562 84.921875 C 120.234375 84.917969 119.574219 84.902344 118.953125 84.902344 C 115.144531 84.902344 111.402344 85.140625 108 85.570312 C 108.5625 85.464844 109.164062 85.375 109.765625 85.285156 C 110.554688 85.160156 111.34375 85.035156 112.160156 84.964844 C 112.980469 84.890625 113.851562 84.789062 114.667969 84.71875 L 115.941406 84.601562 L 116.585938 84.523438 L 117.214844 84.484375 C 118.921875 84.402344 120.585938 84.3125 122.117188 84.226562 C 113.65625 83.9375 105.175781 84.617188 96.859375 86.269531 L 95.308594 86.574219 C 94.789062 86.6875 94.269531 86.800781 93.75 86.917969 L 90.65625 87.65625 C 89.613281 87.886719 88.632812 88.21875 87.609375 88.542969 L 84.882812 89.699219 L 81.867188 90.769531 C 80.875 91.144531 79.851562 91.46875 78.886719 91.894531 C 76.925781 92.699219 74.9375 93.449219 73.023438 94.398438 L 70.152344 95.734375 L 67.332031 97.214844 C 65.417969 98.164062 63.628906 99.285156 61.816406 100.351562 C 61.382812 100.621094 60.90625 100.882812 60.472656 101.15625 L 59.160156 102.015625 L 56.484375 103.757812 C 55.605469 104.34375 54.757812 104.984375 53.90625 105.621094 L 52.613281 106.574219 C 52.167969 106.886719 51.761719 107.214844 51.355469 107.539062 C 44.65625 112.765625 38.550781 118.695312 33.183594 125.28125 C 37.226562 120.347656 41.75 115.90625 46.507812 111.882812 C 51.25 107.90625 56.265625 104.359375 61.394531 101.335938 C 56.703125 104.222656 52.175781 107.464844 47.925781 110.96875 C 43.703125 114.523438 39.695312 118.40625 35.96875 122.546875 L 33.238281 125.695312 C 32.773438 126.222656 32.351562 126.765625 31.929688 127.308594 L 30.648438 128.972656 C 30.222656 129.511719 29.800781 130.054688 29.367188 130.636719 L 28.15625 132.363281 L 26.945312 134.09375 L 26.34375 134.9375 L 25.773438 135.835938 C 25.027344 137.035156 24.292969 138.195312 23.542969 139.394531 C 22.839844 140.605469 22.171875 141.828125 21.464844 143.039062 C 21.113281 143.644531 20.757812 144.25 20.445312 144.871094 L 19.5 146.761719 L 18.550781 148.65625 C 18.414062 148.972656 18.238281 149.273438 18.101562 149.589844 L 17.683594 150.574219 L 15.90625 154.707031 L 14.332031 158.898438 L 13.941406 159.9375 C 13.835938 160.304688 13.726562 160.671875 13.59375 160.988281 L 12.933594 163.097656 L 12.265625 165.25 C 12.050781 165.984375 11.890625 166.691406 11.675781 167.425781 L 11.128906 169.613281 C 10.957031 170.359375 10.753906 171.054688 10.582031 171.800781 L 9.660156 176.183594 C 9.597656 176.5625 9.542969 176.902344 9.476562 177.28125 L 9.289062 178.378906 L 8.957031 180.585938 L 8.773438 181.679688 L 8.699219 182.234375 L 8.628906 182.789062 L 8.378906 185.019531 C 7.050781 196.898438 7.8125 208.898438 10.1875 220.527344 C 9.9375 219.570312 9.679688 218.476562 9.421875 217.382812 C 9.175781 216.246094 8.886719 215.101562 8.71875 213.855469 C 8.792969 214.363281 8.867188 214.875 8.980469 215.394531 L 9.28125 216.941406 L 9.886719 220.042969 C 10.074219 221.070312 10.355469 222.082031 10.597656 223.082031 C 10.839844 224.082031 11.066406 225.121094 11.347656 226.132812 L 12.246094 229.140625 C 12.527344 230.152344 12.808594 231.164062 13.195312 232.117188 C 13.90625 234.09375 14.519531 236.089844 15.335938 238.007812 C 15.839844 239.171875 16.339844 240.335938 16.886719 241.515625 L 18.550781 244.921875 C 18.117188 244.128906 17.140625 242.164062 16.4375 240.765625 C 21.53125 252.648438 28.5625 263.640625 37.207031 273.058594 C 45.792969 282.507812 56.039062 290.222656 66.964844 296.054688 C 65.191406 295.140625 64.300781 294.707031 63.476562 294.332031 C 64.054688 294.632812 64.660156 294.988281 65.238281 295.289062 C 65.816406 295.589844 66.421875 295.941406 67.039062 296.253906 C 68.667969 297.039062 70.289062 297.863281 71.933594 298.605469 C 73.589844 299.308594 75.246094 300.011719 76.859375 300.703125 C 75.230469 300.050781 73.578125 299.351562 71.921875 298.648438 C 70.277344 297.902344 68.65625 297.078125 67.066406 296.304688 C 66.398438 296.023438 65.761719 295.617188 65.101562 295.292969 C 64.457031 294.929688 63.796875 294.605469 63.152344 294.238281 C 62.753906 294.078125 62.328125 293.867188 61.835938 293.589844 C 61.339844 293.3125 60.746094 292.917969 59.972656 292.382812 C 54.171875 288.882812 49.082031 285.058594 45.664062 281.894531 C 43.964844 280.425781 42.4375 278.828125 40.882812 277.316406 C 40.085938 276.554688 39.355469 275.71875 38.597656 274.96875 C 37.855469 274.175781 37.109375 273.386719 36.367188 272.59375 C 35.675781 271.773438 34.984375 270.953125 34.242188 270.160156 C 33.550781 269.339844 32.847656 268.558594 32.207031 267.710938 C 30.878906 266.039062 29.535156 264.410156 28.351562 262.691406 C 23.460938 255.910156 19.445312 248.855469 16.527344 241.675781 C 15.199219 238.324219 15.675781 239.125 16.425781 240.804688 C 16.070312 239.902344 15.683594 238.949219 15.324219 238.050781 L 14.453125 236.023438 L 13.683594 233.941406 C 13.199219 232.5625 12.621094 231.199219 12.203125 229.746094 C 11.769531 228.335938 11.296875 226.917969 10.917969 225.476562 C 10.539062 224.039062 10.214844 222.570312 9.835938 221.132812 C 8.421875 214.566406 7.613281 207.910156 7.410156 201.300781 C 7.371094 200.667969 7.34375 199.996094 7.308594 199.367188 C 7.269531 198.734375 7.285156 198.074219 7.296875 197.414062 C 7.335938 198.046875 7.28125 198.695312 7.308594 199.367188 C 7.117188 182.351562 10.796875 165.578125 17.664062 150.480469 C 18.132812 149.332031 18.707031 148.261719 19.257812 147.136719 L 20.054688 145.464844 C 20.300781 144.914062 20.601562 144.339844 20.890625 143.800781 C 22.097656 141.628906 23.222656 139.433594 24.582031 137.347656 C 27.148438 133.089844 30.085938 129.074219 33.152344 125.226562 L 32.613281 125.867188 L 32.113281 126.519531 L 31.0625 127.851562 C 30.355469 128.753906 29.664062 129.617188 28.988281 130.570312 C 28.324219 131.484375 27.6875 132.449219 27.023438 133.363281 L 26.042969 134.761719 L 25.128906 136.222656 L 23.316406 139.105469 C 22.722656 140.085938 22.210938 141.085938 21.617188 142.066406 L 20.785156 143.550781 L 20.34375 144.308594 L 19.945312 145.078125 L 18.433594 148.136719 C 17.921875 149.140625 17.4375 150.195312 16.996094 151.261719 L 15.597656 154.398438 C 15.195312 155.476562 14.804688 156.511719 14.363281 157.578125 C 13.960938 158.660156 13.527344 159.683594 13.207031 160.785156 C 12.847656 161.878906 12.496094 162.925781 12.136719 164.015625 C 11.980469 164.546875 11.773438 165.109375 11.621094 165.640625 L 11.1875 167.285156 C 10.867188 168.386719 10.597656 169.460938 10.277344 170.5625 C 10 171.675781 9.769531 172.761719 9.542969 173.847656 C 11.65625 162.019531 16.277344 149.457031 23.113281 137.984375 C 18.582031 145.34375 14.976562 153.332031 12.257812 161.617188 C 11.980469 162.421875 11.714844 163.1875 11.488281 163.960938 C 11.367188 164.371094 11.222656 164.726562 11.101562 165.132812 C 10.984375 165.542969 10.878906 165.910156 10.757812 166.316406 C 10.308594 167.871094 9.898438 169.433594 9.46875 170.902344 C 9.125 172.398438 8.789062 173.847656 8.453125 175.167969 C 8.113281 176.484375 7.921875 177.757812 7.640625 178.871094 C 9.074219 170.433594 11.070312 163.574219 13.269531 157.21875 C 8.125 170.957031 5.464844 185.902344 5.890625 201.035156 C 5.894531 201.789062 5.949219 202.511719 5.953125 203.265625 C 5.980469 203.628906 5.953125 204.019531 5.980469 204.382812 C 6.007812 204.746094 6.035156 205.105469 6.0625 205.46875 C 6.035156 205.105469 6.007812 204.746094 5.980469 204.382812 L 5.953125 203.265625 C 5.9375 202.554688 5.894531 201.789062 5.878906 201.078125 C 5.625 192.8125 6.15625 184.285156 7.710938 175.882812 C 9.269531 167.480469 11.832031 159.28125 15.253906 151.773438 L 14.726562 153.125 C 14.554688 153.5625 14.371094 154.039062 14.199219 154.476562 C 13.886719 155.40625 13.574219 156.332031 13.21875 157.246094 C 14.347656 154.121094 15.710938 151.109375 17.074219 148.09375 C 17.8125 146.628906 18.546875 145.160156 19.285156 143.691406 C 20.101562 142.246094 20.910156 140.839844 21.6875 139.386719 C 25.019531 133.710938 28.832031 128.355469 33.027344 123.375 C 37.21875 118.394531 41.832031 113.800781 46.808594 109.625 C 51.773438 105.488281 57.105469 101.769531 62.671875 98.472656 C 61.890625 98.867188 61.101562 99.300781 60.3125 99.734375 C 59.519531 100.167969 58.707031 100.6875 57.890625 101.203125 C 57.078125 101.71875 56.222656 102.222656 55.398438 102.777344 C 54.558594 103.375 53.734375 103.933594 52.882812 104.574219 C 49.480469 106.992188 46.078125 109.855469 42.765625 112.878906 C 36.195312 119.027344 30.269531 126.160156 25.609375 132.597656 C 33.425781 120.789062 43.792969 110.253906 55.960938 102.058594 C 68.101562 93.808594 82.039062 87.898438 96.550781 84.898438 C 111.070312 81.855469 126.140625 81.808594 140.496094 84.519531 C 147.679688 85.855469 154.660156 87.886719 161.394531 90.460938 C 168.078125 93.070312 174.488281 96.304688 180.445312 100.03125 L 177.257812 98.039062 C 176.210938 97.382812 175.097656 96.792969 173.996094 96.164062 C 171.847656 94.875 169.585938 93.816406 167.347656 92.679688 C 162.824219 90.570312 158.203125 88.648438 153.410156 87.167969 C 148.648438 85.5625 143.761719 84.40625 138.824219 83.414062 C 137.605469 83.191406 136.332031 83 135.113281 82.777344 C 134.476562 82.683594 133.851562 82.546875 133.246094 82.5 L 131.367188 82.265625 C 130.121094 82.125 128.851562 81.933594 127.59375 81.832031 C 126.339844 81.734375 125.074219 81.675781 123.816406 81.578125 C 124.773438 81.632812 125.773438 81.703125 126.773438 81.769531 C 127.296875 81.789062 127.78125 81.800781 128.296875 81.859375 C 128.808594 81.921875 129.335938 81.941406 129.847656 82 C 130.929688 82.09375 131.957031 82.214844 133.035156 82.308594 C 133.171875 82.300781 133.332031 82.351562 133.46875 82.34375 C 127.53125 81.59375 121.691406 81.269531 115.792969 81.457031 C 114.085938 81.539062 112.382812 81.617188 110.675781 81.695312 C 109.121094 81.867188 107.578125 81.992188 106.023438 82.160156 C 111.527344 81.503906 117.019531 81.195312 122.554688 81.34375 C 131.703125 81.566406 140.796875 82.878906 149.574219 85.121094 C 150.90625 85.421875 152.078125 85.804688 153.179688 86.125 C 154.242188 86.433594 155.222656 86.71875 156.039062 86.957031 C 157.699219 87.484375 158.953125 87.894531 159.8125 88.144531 C 161.566406 88.652344 161.847656 88.601562 161.253906 88.207031 C 160.660156 87.8125 159.097656 87.09375 157.210938 86.277344 C 156.265625 85.871094 155.175781 85.511719 154.082031 85.148438 C 152.992188 84.789062 151.875 84.375 150.800781 84.105469 C 148.082031 83.40625 145.386719 82.621094 142.609375 82.125 C 141.945312 81.976562 141.226562 81.855469 140.5625 81.707031 C 140.222656 81.652344 139.894531 81.558594 139.558594 81.503906 L 138.542969 81.339844 C 137.1875 81.125 135.792969 80.894531 134.4375 80.679688 C 133.074219 80.503906 131.695312 80.367188 130.316406 80.234375 C 129.628906 80.167969 128.941406 80.097656 128.25 80.03125 C 127.5625 79.964844 126.902344 79.949219 126.203125 79.921875 C 124.851562 79.839844 123.464844 79.746094 122.101562 79.707031 C 120.730469 79.703125 119.371094 79.664062 118.039062 79.675781 C 112.617188 79.738281 107.207031 80.070312 101.914062 80.921875 L 99.929688 81.1875 C 99.277344 81.304688 98.621094 81.425781 97.96875 81.546875 C 96.65625 81.785156 95.347656 82.023438 94.027344 82.304688 C 91.441406 82.96875 88.851562 83.5 86.3125 84.3125 C 65.984375 90.269531 47.59375 101.75 33.527344 117.542969 C 33.128906 118.003906 32.6875 118.449219 32.277344 118.949219 L 31.109375 120.382812 C 30.335938 121.355469 29.527344 122.3125 28.757812 123.285156 C 28.027344 124.269531 27.289062 125.292969 26.558594 126.277344 C 26.191406 126.789062 25.832031 127.261719 25.460938 127.773438 L 24.429688 129.335938 L 22.332031 132.445312 L 20.558594 135.648438 L 19.613281 137.230469 L 18.734375 138.882812 L 16.9375 142.167969 C 12.410156 151.035156 9 160.492188 6.75 170.203125 C 6.171875 172.957031 5.429688 175.972656 4.957031 179.113281 C 4.828125 179.871094 4.683594 180.667969 4.578125 181.480469 C 4.476562 182.292969 4.386719 183.0625 4.292969 183.832031 C 4.203125 184.605469 4.101562 185.414062 4.050781 186.199219 C 4.023438 186.589844 3.957031 186.96875 3.933594 187.359375 C 3.910156 187.75 3.882812 188.140625 3.859375 188.535156 C 3.769531 190.058594 3.679688 191.582031 3.574219 193.011719 C 3.550781 194.464844 3.550781 195.839844 3.53125 197.117188 C 3.519531 197.777344 3.515625 198.394531 3.523438 198.972656 C 3.574219 199.566406 3.582031 200.144531 3.605469 200.679688 C 3.644531 201.753906 3.722656 202.707031 3.742188 203.554688 C 4.457031 212.21875 6.234375 220.882812 8.945312 229.375 C 10.269531 233.65625 11.949219 237.777344 13.753906 241.933594 C 14.210938 242.949219 14.746094 243.992188 15.203125 245.011719 C 15.703125 246.039062 16.160156 247.058594 16.75 248.074219 C 17.851562 250.074219 18.898438 252.105469 20.105469 254.050781 C 20.707031 255.023438 21.257812 256.023438 21.902344 257.007812 C 22.558594 257.953125 23.199219 258.9375 23.816406 259.867188 C 24.117188 260.355469 24.460938 260.851562 24.773438 261.296875 L 25.824219 262.710938 C 26.519531 263.664062 27.1875 264.566406 27.882812 265.523438 C 30.8125 269.164062 33.789062 272.773438 37.214844 276.074219 C 38.84375 277.785156 40.640625 279.371094 42.386719 280.984375 C 42.804688 281.371094 43.261719 281.769531 43.722656 282.171875 L 46.503906 284.484375 L 47.171875 285.078125 L 47.894531 285.640625 C 48.835938 286.359375 49.820312 287.085938 50.765625 287.804688 L 51.484375 288.367188 C 51.746094 288.53125 51.96875 288.683594 52.21875 288.890625 L 53.738281 289.910156 L 55.257812 290.925781 C 55.769531 291.296875 56.253906 291.613281 56.777344 291.941406 C 57.828125 292.601562 58.847656 293.207031 59.894531 293.867188 C 67.335938 298.421875 75.527344 302.085938 84.09375 304.753906 C 85.15625 305.0625 86.234375 305.464844 87.308594 305.734375 C 88.382812 306 89.496094 306.28125 90.558594 306.589844 L 92.203125 307.023438 C 92.734375 307.175781 93.289062 307.25 93.871094 307.375 C 94.957031 307.601562 96.082031 307.839844 97.21875 308.039062 L 98.0625 308.195312 C 98.359375 308.234375 98.613281 308.265625 98.914062 308.308594 L 100.605469 308.578125 C 101.714844 308.726562 102.851562 308.921875 103.960938 309.066406 L 107.363281 309.394531 L 109.039062 309.570312 C 109.59375 309.644531 110.171875 309.632812 110.738281 309.664062 L 114.148438 309.816406 L 115.027344 309.847656 L 115.871094 309.828125 L 117.59375 309.84375 C 118.753906 309.824219 119.886719 309.886719 121.011719 309.816406 L 124.425781 309.660156 L 126.128906 309.578125 L 127.820312 309.40625 L 131.195312 309.058594 C 132.347656 308.90625 133.457031 308.742188 134.566406 308.578125 C 135.679688 308.414062 136.828125 308.261719 137.921875 308.003906 C 140.140625 307.539062 142.382812 307.128906 144.582031 306.574219 C 145.6875 306.273438 146.769531 306.058594 147.886719 305.71875 C 148.949219 305.40625 150.066406 305.070312 151.132812 304.757812 L 152.742188 304.25 L 154.320312 303.691406 C 155.394531 303.339844 156.445312 302.9375 157.480469 302.574219 C 158.527344 302.167969 159.585938 301.722656 160.59375 301.308594 C 161.609375 300.851562 162.6875 300.5 163.675781 299.992188 C 171.835938 296.296875 179.476562 291.789062 186.445312 286.550781 C 193.375 281.304688 199.574219 275.355469 204.992188 269.050781 C 210.414062 262.746094 215.035156 255.984375 218.804688 249.109375 C 222.613281 242.246094 225.625 235.242188 227.980469 228.355469 C 227.5625 229.648438 226.988281 231.164062 226.367188 232.84375 Z M 21.492188 135.03125 C 22.210938 133.78125 22.902344 132.609375 23.667969 131.503906 C 24.433594 130.398438 25.171875 129.371094 25.859375 128.378906 C 26.589844 127.394531 27.386719 126.472656 28.09375 125.574219 C 31.046875 121.957031 34.015625 119.058594 37.078125 115.832031 C 41.3125 111.480469 45.863281 107.402344 50.726562 103.769531 C 51.957031 102.886719 53.1875 102.003906 54.390625 101.070312 C 55.648438 100.238281 56.90625 99.410156 58.167969 98.582031 C 58.78125 98.140625 59.425781 97.75 60.101562 97.414062 L 62.03125 96.25 C 62.675781 95.863281 63.320312 95.472656 63.996094 95.136719 C 64.667969 94.800781 65.300781 94.457031 65.984375 94.078125 C 67.289062 93.394531 68.609375 92.671875 69.984375 92.054688 C 71.316406 91.421875 72.652344 90.792969 74.027344 90.171875 C 75.390625 89.59375 76.742188 89.058594 78.105469 88.480469 C 78.769531 88.1875 79.5 87.957031 80.148438 87.703125 C 80.839844 87.460938 81.527344 87.21875 82.21875 86.976562 C 82.910156 86.734375 83.558594 86.480469 84.289062 86.25 C 84.96875 86.046875 85.660156 85.804688 86.378906 85.617188 C 87.777344 85.226562 89.117188 84.730469 90.488281 84.417969 C 91.875 84.070312 93.261719 83.71875 94.59375 83.398438 C 95.957031 83.128906 97.371094 82.832031 98.734375 82.566406 C 91.613281 83.90625 84.652344 85.910156 77.949219 88.566406 C 82.441406 86.820312 86.816406 85.476562 91.265625 84.335938 C 92.027344 84.15625 92.785156 83.980469 93.507812 83.792969 L 94.652344 83.503906 L 95.773438 83.300781 C 97.3125 83.039062 98.820312 82.722656 100.410156 82.433594 C 101.976562 82.222656 103.582031 82.027344 105.203125 81.789062 C 106.808594 81.59375 108.472656 81.5 110.152344 81.367188 C 109.132812 81.515625 107.847656 81.671875 106.429688 81.835938 C 105.703125 81.890625 104.996094 82.039062 104.261719 82.136719 C 103.523438 82.230469 102.777344 82.367188 102.039062 82.464844 C 101.292969 82.601562 100.609375 82.667969 99.898438 82.816406 C 99.234375 82.976562 98.578125 83.097656 98.007812 83.238281 C 96.871094 83.484375 95.914062 83.738281 95.421875 83.90625 C 97.023438 83.574219 98.625 83.242188 100.242188 83.003906 C 98.601562 83.324219 96.957031 83.644531 95.261719 83.992188 C 95.316406 83.964844 95.355469 83.976562 95.410156 83.945312 C 79.613281 87.414062 64.523438 94.230469 51.449219 103.714844 C 44.933594 108.460938 38.859375 113.824219 33.503906 119.75 C 28.140625 125.71875 23.382812 132.175781 19.359375 139.019531 C 20 137.566406 20.773438 136.285156 21.492188 135.03125 Z M 105.128906 82.34375 C 103.738281 82.558594 102.308594 82.761719 100.875 82.964844 C 102.265625 82.75 103.699219 82.546875 105.128906 82.34375 Z M 77.726562 88.722656 C 77.078125 88.976562 76.425781 89.230469 75.765625 89.527344 C 76.425781 89.230469 77.078125 88.976562 77.726562 88.722656 Z M 88.398438 94.660156 C 89.972656 94.277344 91.621094 93.78125 93.398438 93.457031 L 91.679688 93.886719 L 89.988281 94.371094 C 88.871094 94.710938 87.753906 95.046875 86.636719 95.386719 C 84.460938 96.171875 82.214844 96.890625 80.042969 97.8125 C 75.695312 99.515625 71.5 101.613281 67.375 103.914062 L 64.335938 105.6875 C 63.808594 105.976562 63.351562 106.332031 62.867188 106.632812 L 61.398438 107.578125 L 59.925781 108.523438 C 59.441406 108.824219 58.972656 109.21875 58.472656 109.5625 C 57.519531 110.257812 56.5625 110.957031 55.609375 111.652344 C 54.679688 112.402344 53.765625 113.109375 52.839844 113.859375 C 52.382812 114.210938 51.914062 114.609375 51.457031 114.960938 L 50.144531 116.128906 C 49.246094 116.933594 48.359375 117.691406 47.464844 118.496094 C 46.605469 119.308594 45.738281 120.164062 44.882812 120.976562 L 44.839844 120.964844 C 50.226562 115.535156 57.550781 109.691406 64.941406 105.289062 C 65.847656 104.753906 66.808594 104.191406 67.664062 103.6875 C 68.097656 103.414062 68.570312 103.15625 69.035156 102.933594 C 69.496094 102.714844 69.929688 102.441406 70.390625 102.222656 C 71.277344 101.773438 72.132812 101.265625 73.015625 100.816406 C 73.886719 100.40625 74.71875 99.984375 75.539062 99.601562 C 75.949219 99.410156 76.359375 99.21875 76.726562 99.015625 C 76.925781 98.941406 77.136719 98.824219 77.292969 98.738281 C 77.492188 98.664062 77.691406 98.589844 77.902344 98.472656 C 78.667969 98.121094 79.425781 97.808594 80.136719 97.484375 C 80.851562 97.160156 81.515625 96.867188 82.132812 96.558594 C 82.785156 96.304688 83.351562 96.027344 83.90625 95.789062 C 85.324219 95.492188 86.785156 95.03125 88.398438 94.660156 Z M 206.550781 129.492188 C 203.269531 125.085938 199.664062 120.890625 195.796875 116.980469 L 192.820312 114.121094 C 192.34375 113.628906 191.800781 113.207031 191.273438 112.742188 L 189.726562 111.363281 C 189.195312 110.898438 188.707031 110.445312 188.167969 110.023438 L 184.917969 107.484375 L 184.085938 106.84375 L 183.242188 106.246094 C 182.105469 105.429688 180.960938 104.652344 179.867188 103.847656 C 178.707031 103.109375 177.519531 102.324219 176.359375 101.585938 C 175.214844 100.8125 173.988281 100.144531 172.777344 99.4375 C 171.566406 98.734375 170.355469 98.027344 169.109375 97.441406 C 169.644531 97.730469 170.234375 97.992188 170.769531 98.28125 L 172.363281 99.1875 C 173.425781 99.804688 174.507812 100.339844 175.558594 101 C 177.613281 102.304688 179.773438 103.554688 181.742188 105.011719 C 185.816406 107.746094 189.640625 110.894531 193.292969 114.167969 C 197.929688 118.484375 202.09375 123.191406 205.796875 128.121094 C 209.5 133.050781 212.648438 138.214844 215.328125 143.46875 C 212.71875 138.589844 209.777344 133.929688 206.550781 129.492188 Z M 119.503906 90.019531 C 120.472656 90.035156 121.441406 90.050781 122.398438 90.109375 C 123.355469 90.164062 124.34375 90.277344 125.34375 90.34375 C 127.296875 90.46875 129.246094 90.769531 131.167969 91.019531 C 129.195312 90.800781 127.273438 90.550781 125.304688 90.464844 C 124.347656 90.410156 123.351562 90.339844 122.394531 90.285156 C 121.421875 90.269531 120.453125 90.25 119.484375 90.234375 C 120.195312 90.222656 119.574219 90.085938 119.503906 90.019531 Z M 156.75 97.304688 C 157.175781 97.515625 157.628906 97.78125 158.175781 98.027344 C 158.726562 98.277344 159.289062 98.617188 159.917969 98.890625 L 158.945312 98.429688 L 158.441406 98.195312 L 157.921875 98 C 157.238281 97.757812 156.566406 97.472656 155.925781 97.242188 C 155.246094 97 154.574219 96.714844 153.933594 96.484375 C 153.617188 96.347656 153.25 96.242188 152.921875 96.148438 L 151.914062 95.808594 C 153.570312 96.203125 155.128906 96.789062 156.75 97.304688 Z M 201.648438 131.121094 C 201.945312 131.472656 202.230469 131.867188 202.527344 132.21875 C 202.820312 132.570312 203.054688 132.992188 203.308594 133.332031 C 202.652344 132.386719 201.933594 131.515625 201.226562 130.601562 C 200.871094 130.144531 200.515625 129.6875 200.148438 129.269531 C 199.796875 128.8125 199.441406 128.355469 199.035156 127.925781 L 196.738281 125.3125 L 196.175781 124.660156 L 195.558594 124.039062 C 195.152344 123.609375 194.777344 123.234375 194.367188 122.808594 C 195.136719 123.515625 195.777344 124.058594 196.113281 124.421875 C 196.789062 125.148438 197.410156 125.90625 198.03125 126.660156 C 198.367188 127.023438 198.664062 127.375 198.988281 127.78125 C 199.328125 128.144531 199.621094 128.496094 199.90625 128.890625 C 200.488281 129.632812 201.066406 130.378906 201.648438 131.121094 Z M 201.648438 131.121094 " fill-opacity="1" fill-rule="nonzero"/></g></g></g><g fill="#3edde9" fill-opacity="1"><g transform="translate(48.904703, 204.320291)"><g><path d="M 34.347656 22.6875 C 36.078125 22.140625 37.71875 21.503906 39.449219 20.863281 C 48.105469 17.492188 56.578125 12.753906 64.597656 6.832031 C 71.703125 1.640625 77.992188 -4.375 85.1875 -11.753906 C 85.554688 -12.117188 86.007812 -12.9375 85.644531 -13.574219 C 85.460938 -13.574219 85.097656 -13.210938 84.824219 -13.027344 C 84.09375 -12.574219 83.550781 -11.9375 83.003906 -11.390625 L 82.636719 -11.023438 C 70.976562 1.367188 58.765625 10.570312 45.375 16.945312 C 37.8125 20.5 30.613281 22.230469 23.324219 22.230469 C 21.957031 22.230469 20.589844 22.230469 19.132812 22.140625 C 15.488281 21.777344 12.390625 20.316406 10.476562 18.039062 C 8.65625 15.671875 8.019531 12.664062 8.835938 9.476562 C 9.65625 6.378906 11.296875 3.554688 14.121094 0.636719 C 20.226562 -5.921875 28.425781 -10.113281 36.351562 -14.121094 C 37.628906 -14.761719 38.90625 -15.398438 40.179688 -16.035156 C 43.824219 -17.765625 47.652344 -19.589844 50.75 -22.140625 L 51.203125 -22.414062 C 52.480469 -23.414062 53.390625 -24.234375 52.664062 -25.511719 C 52.207031 -26.238281 51.570312 -26.511719 50.75 -26.511719 C 50.203125 -26.511719 49.65625 -26.421875 49.109375 -26.332031 C 48.835938 -26.238281 48.5625 -26.148438 48.378906 -26.148438 C 48.472656 -26.148438 48.652344 -26.148438 48.746094 -26.148438 C 49.199219 -26.148438 49.472656 -26.058594 49.746094 -25.875 L 49.929688 -25.601562 L 50.019531 -25.421875 C 50.109375 -24.78125 49.382812 -23.960938 49.292969 -23.871094 C 48.472656 -23.050781 47.558594 -22.503906 46.558594 -22.050781 L 45.738281 -21.59375 C 44.371094 -20.863281 42.914062 -20.316406 41.546875 -19.679688 L 39.085938 -18.679688 C 29.976562 -14.851562 20.410156 -10.84375 13.121094 -4.191406 C 9.65625 -1.183594 6.105469 2.734375 5.101562 8.65625 C 4.375 12.574219 5.464844 16.398438 8.019531 19.316406 C 10.660156 22.230469 14.488281 23.960938 18.769531 24.234375 C 20.136719 24.328125 21.410156 24.328125 22.6875 24.328125 C 27.152344 24.328125 30.976562 23.78125 34.347656 22.6875 Z M 29.882812 -21.136719 C 33.253906 -22.050781 36.625 -22.867188 39.996094 -23.78125 C 41 -24.054688 42.003906 -24.328125 43.003906 -24.691406 C 43.640625 -24.875 45.464844 -25.421875 45.464844 -25.421875 C 46.101562 -25.691406 46.832031 -25.875 47.558594 -25.964844 C 47.652344 -26.058594 47.742188 -26.058594 47.832031 -26.058594 C 45.191406 -25.691406 42.640625 -25.238281 39.996094 -24.78125 C 36.625 -24.234375 33.253906 -23.597656 29.882812 -23.140625 C 28.699219 -23.050781 27.425781 -22.867188 26.058594 -22.867188 C 22.59375 -22.867188 19.953125 -23.960938 18.132812 -26.148438 C 15.398438 -29.429688 17.402344 -32.253906 19.042969 -34.441406 L 19.589844 -35.351562 C 26.785156 -46.101562 37.539062 -54.121094 51.476562 -59.222656 C 54.847656 -60.496094 57.671875 -61.042969 60.589844 -61.136719 L 60.953125 -61.136719 C 65.144531 -61.136719 68.425781 -59.949219 70.429688 -57.765625 C 72.433594 -55.488281 72.980469 -52.296875 72.160156 -48.378906 C 71.613281 -46.011719 70.792969 -43.824219 69.972656 -41.730469 C 69.519531 -40.636719 69.0625 -39.542969 68.699219 -38.449219 C 68.242188 -36.992188 68.605469 -35.988281 69.882812 -35.261719 C 70.335938 -34.988281 70.792969 -34.804688 71.15625 -34.804688 C 71.796875 -34.804688 72.34375 -35.261719 72.796875 -36.078125 C 74.164062 -38.449219 74.984375 -41.273438 75.441406 -45.375 C 76.078125 -51.113281 74.800781 -55.851562 71.703125 -59.039062 C 68.972656 -61.863281 64.960938 -63.414062 60.042969 -63.414062 C 58.949219 -63.414062 57.855469 -63.320312 56.671875 -63.140625 C 56.308594 -63.140625 55.941406 -63.050781 55.667969 -62.957031 C 55.394531 -62.867188 55.214844 -62.867188 54.941406 -62.777344 C 41.183594 -59.949219 29.335938 -53.207031 18.679688 -42.183594 C 15.398438 -38.722656 13.574219 -35.351562 13.027344 -31.523438 C 12.664062 -28.972656 13.210938 -26.785156 14.488281 -25.054688 C 15.761719 -23.324219 17.949219 -22.050781 20.863281 -21.230469 C 22.414062 -20.863281 23.960938 -20.683594 25.511719 -20.683594 C 26.96875 -20.683594 28.425781 -20.863281 29.882812 -21.136719 Z M 29.882812 -21.136719 "/></g></g></g><g fill="#3edde9" fill-opacity="1"><g transform="translate(132.350979, 204.320291)"><g><path d="M 34.894531 -15.578125 C 34.441406 -15.578125 34.074219 -15.488281 33.710938 -15.488281 C 33.253906 -15.398438 32.800781 -15.398438 32.34375 -15.398438 L 31.980469 -15.398438 C 27.515625 -15.671875 25.875 -17.039062 24.78125 -21.230469 C 24.78125 -21.503906 24.691406 -21.777344 24.691406 -22.050781 C 24.507812 -23.050781 24.328125 -23.6875 23.414062 -24.054688 C 23.140625 -24.144531 22.867188 -24.144531 22.6875 -24.144531 C 21.957031 -24.144531 21.59375 -23.597656 21.230469 -23.050781 C 21.230469 -23.050781 19.953125 -21.230469 19.496094 -20.589844 C 18.132812 -18.585938 16.671875 -16.492188 15.035156 -14.578125 C 12.9375 -12.207031 11.023438 -10.203125 9.109375 -8.472656 C 9.019531 -8.472656 5.375 -5.191406 3.644531 -5.191406 C 3.1875 -5.191406 2.914062 -5.375 2.824219 -5.558594 C 2.460938 -5.921875 2.367188 -6.652344 2.640625 -7.652344 L 3.28125 -9.839844 C 3.917969 -12.207031 4.648438 -14.488281 5.191406 -16.855469 C 6.195312 -20.589844 7.199219 -24.328125 8.109375 -28.152344 L 8.199219 -28.425781 C 8.382812 -29.0625 8.5625 -29.882812 8.199219 -30.523438 C 8.019531 -30.886719 7.652344 -31.160156 7.199219 -31.34375 C 6.925781 -31.523438 6.652344 -31.523438 6.46875 -31.523438 C 5.648438 -31.523438 5.285156 -30.703125 4.921875 -29.792969 C 3.371094 -25.148438 1.914062 -20.773438 0.636719 -16.492188 C -0.546875 -12.664062 -1.003906 -9.566406 -0.910156 -6.46875 C -0.910156 -4.738281 -0.363281 -3.644531 0.820312 -2.914062 C 1.367188 -2.550781 1.914062 -2.367188 2.460938 -2.367188 C 3.097656 -2.367188 3.644531 -2.640625 4.375 -3.097656 L 5.101562 -3.644531 C 6.011719 -4.28125 6.925781 -4.921875 7.746094 -5.738281 C 11.390625 -9.203125 14.941406 -12.664062 18.496094 -16.21875 L 22.320312 -19.953125 L 22.503906 -19.679688 C 25.054688 -16.945312 27.605469 -15.214844 30.066406 -14.578125 C 31.160156 -14.304688 32.4375 -14.121094 33.621094 -14.121094 C 34.621094 -14.121094 35.535156 -14.214844 36.351562 -14.394531 C 36.992188 -14.578125 36.992188 -14.761719 36.992188 -14.851562 C 36.808594 -15.125 35.808594 -15.488281 34.894531 -15.578125 Z M 34.894531 -15.578125 "/></g></g></g><g fill="#3edde9" fill-opacity="1"><g transform="translate(166.968431, 204.320291)"><g><path d="M 31.070312 -13.394531 C 30.703125 -13.121094 30.339844 -12.753906 29.976562 -12.390625 C 29.703125 -12.207031 29.519531 -11.9375 29.246094 -11.753906 C 27.789062 -10.476562 26.421875 -9.476562 24.964844 -8.472656 C 21.777344 -6.285156 18.585938 -4.828125 15.398438 -3.917969 C 13.300781 -3.28125 11.570312 -2.914062 9.566406 -2.914062 C 8.382812 -2.914062 7.289062 -3.007812 6.105469 -3.371094 C 4.648438 -3.734375 3.644531 -4.464844 3.007812 -5.375 C 2.460938 -6.105469 2.277344 -6.925781 2.460938 -7.746094 L 2.640625 -8.382812 C 3.1875 -11.207031 3.828125 -14.214844 7.925781 -14.851562 C 13.574219 -15.671875 17.402344 -17.492188 19.953125 -20.589844 C 21.046875 -21.957031 21.867188 -23.234375 20.5 -25.148438 C 19.589844 -26.421875 18.3125 -27.058594 16.855469 -27.058594 C 16.398438 -27.058594 15.945312 -27.058594 15.398438 -26.878906 C 6.378906 -24.507812 0.910156 -19.042969 -0.730469 -10.84375 C -1.277344 -8.382812 -0.730469 -6.105469 0.820312 -4.375 C 2.460938 -2.640625 4.921875 -1.640625 7.925781 -1.550781 L 8.382812 -1.550781 C 17.765625 -1.550781 24.417969 -6.742188 30.796875 -11.753906 L 31.433594 -12.207031 C 31.890625 -12.574219 32.707031 -13.210938 32.527344 -13.847656 C 32.070312 -13.847656 31.523438 -13.667969 31.070312 -13.394531 Z M 8.929688 -18.039062 C 11.664062 -21.320312 14.578125 -22.777344 18.222656 -23.871094 L 19.042969 -24.144531 L 18.585938 -23.414062 C 16.398438 -19.863281 13.574219 -18.585938 9.292969 -17.585938 L 8.382812 -17.402344 Z M 8.929688 -18.039062 "/></g></g></g><g fill="#3edde9" fill-opacity="1"><g transform="translate(198.033034, 204.320291)"><g><path d="M 50.109375 -15.214844 C 49.929688 -15.398438 49.835938 -15.398438 49.65625 -15.398438 C 49.109375 -15.398438 48.652344 -14.578125 48.378906 -14.03125 L 48.289062 -13.757812 C 46.011719 -9.476562 42.457031 -6.011719 39.632812 -3.1875 C 36.261719 0.183594 32.164062 3.828125 26.511719 5.558594 C 26.058594 5.738281 25.511719 5.921875 25.054688 5.921875 C 24.417969 5.921875 23.871094 5.648438 23.414062 5.191406 C 22.59375 4.375 22.960938 3.460938 23.234375 2.824219 L 23.414062 2.460938 C 23.78125 1.367188 24.234375 0.273438 24.691406 -0.730469 C 25.511719 -2.640625 26.332031 -4.648438 26.878906 -6.742188 C 27.332031 -8.382812 26.96875 -9.839844 26.058594 -10.933594 C 25.148438 -11.9375 23.871094 -12.480469 22.230469 -12.480469 C 21.957031 -12.480469 21.59375 -12.480469 21.320312 -12.390625 C 19.042969 -12.117188 16.765625 -11.480469 14.304688 -10.386719 C 12.207031 -9.566406 10.203125 -8.746094 8.292969 -7.835938 C 7.652344 -7.472656 7.105469 -7.105469 6.46875 -6.742188 C 6.011719 -6.378906 5.558594 -6.011719 5.011719 -5.738281 C 4.554688 -5.558594 3.460938 -5.101562 2.640625 -5.101562 C 2.277344 -5.101562 2.003906 -5.191406 1.820312 -5.375 C 1.277344 -5.832031 1.550781 -6.46875 1.640625 -6.652344 L 4.828125 -14.941406 C 4.921875 -15.125 5.011719 -15.398438 5.191406 -15.671875 C 5.648438 -16.765625 6.558594 -18.679688 6.011719 -19.863281 C 5.832031 -20.226562 5.558594 -20.410156 5.191406 -20.683594 C 4.921875 -20.773438 4.738281 -20.773438 4.554688 -20.773438 C 4.101562 -20.773438 3.734375 -20.316406 3.460938 -19.863281 L 3.28125 -19.589844 C 0.730469 -15.671875 -1.183594 -11.207031 -2.1875 -6.195312 L -2.277344 -5.832031 C -2.550781 -4.738281 -2.824219 -3.734375 -1.550781 -2.640625 C -0.910156 -2.09375 -0.363281 -1.820312 0.183594 -1.820312 C 0.820312 -1.820312 1.457031 -2.1875 2.003906 -2.460938 L 2.277344 -2.640625 C 3.554688 -3.28125 4.738281 -3.917969 5.921875 -4.648438 C 8.5625 -6.105469 11.390625 -7.652344 14.488281 -8.746094 C 16.855469 -9.566406 19.222656 -10.203125 21.59375 -10.75 C 21.957031 -10.84375 22.230469 -10.84375 22.414062 -10.84375 C 23.140625 -10.84375 23.6875 -10.660156 24.144531 -10.113281 C 24.964844 -9.292969 24.601562 -8.5625 24.417969 -8.109375 L 24.234375 -7.835938 C 23.960938 -7.015625 23.507812 -6.378906 23.050781 -5.648438 L 22.230469 -4.191406 C 20.957031 -2.09375 19.679688 0.0898438 19.679688 2.914062 C 19.679688 4.464844 20.042969 5.648438 20.863281 6.46875 C 21.683594 7.199219 22.867188 7.652344 24.417969 7.652344 L 24.601562 7.652344 C 26.148438 7.5625 27.242188 7.378906 28.246094 6.742188 C 37.628906 1.457031 44.644531 -4.921875 49.65625 -12.664062 C 49.746094 -12.847656 49.929688 -13.027344 50.109375 -13.210938 C 50.476562 -13.667969 50.929688 -14.03125 50.75 -14.488281 C 50.75 -14.761719 50.476562 -14.941406 50.109375 -15.214844 Z M 50.109375 -15.214844 "/></g></g></g><g fill="#3edde9" fill-opacity="1"><g transform="translate(246.224166, 204.320291)"><g><path d="M 52.480469 -44.734375 C 52.117188 -45.101562 51.386719 -45.101562 50.65625 -45.101562 C 50.476562 -45.191406 50.203125 -45.191406 50.019531 -45.191406 C 41.820312 -46.101562 34.714844 -46.558594 28.152344 -46.558594 L 20.136719 -46.558594 L 20.316406 -47.011719 C 22.59375 -51.75 25.421875 -55.578125 28.0625 -59.222656 C 28.972656 -60.40625 29.792969 -61.589844 30.703125 -62.867188 C 31.523438 -64.050781 31.980469 -64.871094 30.796875 -65.875 C 30.429688 -66.238281 30.066406 -66.421875 29.703125 -66.421875 C 29.15625 -66.421875 28.792969 -65.875 28.335938 -65.417969 C 28.246094 -65.234375 28.152344 -65.054688 27.972656 -64.960938 C 23.507812 -60.042969 20.042969 -55.03125 17.402344 -49.65625 C 16.21875 -47.105469 14.214844 -46.558594 11.570312 -46.464844 C 8.929688 -46.464844 6.285156 -46.375 3.644531 -46.375 C 0.820312 -46.375 -2.003906 -46.464844 -4.828125 -46.464844 C -7.652344 -46.464844 -10.476562 -46.558594 -13.300781 -46.558594 C -18.585938 -46.558594 -25.511719 -46.464844 -32.34375 -45.828125 L -32.617188 -45.828125 C -32.617188 -45.828125 -33.621094 -45.828125 -33.800781 -45.828125 C -34.621094 -45.828125 -34.804688 -45.648438 -34.714844 -45.007812 C -34.53125 -44.644531 -34.441406 -44.371094 -34.167969 -44.097656 C -33.894531 -43.914062 -33.527344 -43.824219 -33.164062 -43.824219 C -32.707031 -43.824219 -32.253906 -43.914062 -31.796875 -44.007812 C -28.246094 -44.917969 -24.328125 -45.007812 -20.589844 -45.007812 C -19.132812 -45.007812 -17.585938 -45.007812 -16.125 -45.101562 C -12.664062 -45.28125 -8.835938 -45.28125 -4.191406 -45.28125 C -1.367188 -45.28125 1.457031 -45.28125 4.375 -45.28125 C 7.105469 -45.28125 9.929688 -45.191406 12.664062 -45.191406 L 12.847656 -45.191406 L 12.9375 -45.007812 C 14.03125 -43.367188 13.667969 -42.730469 13.394531 -42.09375 C 12.390625 -40.089844 11.390625 -37.992188 10.386719 -35.898438 C 8.199219 -31.617188 6.011719 -27.152344 4.101562 -22.59375 L 3.644531 -21.410156 C -2.1875 -7.378906 -8.109375 7.105469 -9.566406 23.507812 L -9.65625 24.328125 C -9.839844 26.695312 -10.113281 29.246094 -9.292969 31.890625 C -8.472656 34.441406 -6.832031 35.625 -4.191406 35.625 L -4.101562 35.625 C -3.554688 35.625 -2.914062 35.441406 -3.097656 34.53125 C -3.097656 34.167969 -3.28125 33.894531 -3.460938 33.621094 C -3.644531 33.527344 -3.828125 33.4375 -4.007812 33.347656 C -5.191406 33.253906 -5.921875 32.890625 -6.46875 32.34375 C -7.199219 31.523438 -7.199219 30.523438 -7.199219 29.519531 C -7.199219 29.246094 -7.199219 29.0625 -7.199219 28.792969 C -7.289062 22.867188 -6.46875 16.765625 -4.738281 9.75 C -0.183594 -8.109375 8.019531 -23.960938 15.945312 -39.359375 L 17.492188 -42.457031 C 18.3125 -44.007812 19.589844 -44.28125 21.503906 -44.28125 L 21.59375 -44.28125 C 23.140625 -44.28125 24.78125 -44.28125 26.332031 -44.28125 L 30.976562 -44.28125 C 37.082031 -44.28125 43.640625 -44.1875 50.382812 -43.277344 L 50.75 -43.277344 C 51.113281 -43.1875 51.570312 -43.09375 51.933594 -43.09375 C 52.84375 -43.09375 52.933594 -43.460938 52.84375 -43.824219 C 52.84375 -44.1875 52.753906 -44.554688 52.480469 -44.734375 Z M 52.480469 -44.734375 "/></g></g></g><g fill="#3edde9" fill-opacity="1"><g transform="translate(261.893125, 204.320291)"><g><path d="M 31.707031 -14.394531 C 30.613281 -15.308594 22.777344 -7.925781 21.59375 -7.105469 C 18.039062 -4.464844 14.03125 -2.1875 9.382812 -1.09375 C 7.199219 -0.546875 4.28125 0.363281 2.09375 -1.820312 C 0 -3.917969 1.730469 -6.011719 2.460938 -7.835938 C 5.285156 -14.667969 9.109375 -20.773438 13.027344 -26.878906 C 13.484375 -27.789062 14.667969 -28.792969 13.027344 -30.066406 C 11.480469 -31.34375 10.660156 -30.066406 9.929688 -29.335938 C 4.375 -23.234375 0.363281 -16.035156 -1.914062 -7.746094 C -2.550781 -5.464844 -2.640625 -2.640625 0.0898438 -0.273438 C 2.734375 2.09375 5.375 1.640625 7.835938 1.003906 C 13.667969 -0.457031 18.859375 -3.1875 23.414062 -6.378906 C 25.691406 -8.019531 27.878906 -9.75 29.976562 -11.570312 C 30.523438 -12.027344 31.980469 -12.753906 31.980469 -13.667969 C 31.980469 -14.03125 31.890625 -14.304688 31.707031 -14.394531 Z M 16.945312 -34.441406 C 18.949219 -34.621094 20.316406 -35.351562 20.226562 -37.355469 C 19.679688 -39.269531 18.496094 -39.90625 17.039062 -39.722656 C 14.941406 -39.632812 13.757812 -38.722656 14.304688 -36.351562 C 14.761719 -34.804688 15.671875 -34.257812 16.945312 -34.441406 Z M 16.945312 -34.441406 "/></g></g></g><g fill="#3edde9" fill-opacity="1"><g transform="translate(291.955656, 204.320291)"><g><path d="M 28.882812 -15.214844 C 28.425781 -15.214844 27.878906 -15.035156 27.425781 -14.851562 L 25.054688 -14.121094 C 22.140625 -13.121094 19.132812 -12.207031 16.398438 -10.933594 C 12.207031 -9.019531 8.199219 -7.015625 3.828125 -4.828125 C 1.914062 -3.917969 -0.0898438 -2.914062 -2.09375 -1.820312 L -2.914062 -1.457031 L -2.550781 -2.277344 C 3.28125 -17.21875 9.382812 -30.15625 16.125 -41.910156 L 16.398438 -42.457031 C 18.769531 -46.648438 21.230469 -50.929688 24.78125 -54.210938 C 24.964844 -54.300781 25.054688 -54.484375 25.238281 -54.574219 C 25.601562 -55.121094 26.058594 -55.578125 26.695312 -55.578125 C 27.058594 -55.578125 27.425781 -55.394531 27.789062 -55.214844 C 28.972656 -54.394531 28.792969 -53.207031 28.609375 -52.296875 C 28.609375 -52.117188 28.609375 -51.933594 28.519531 -51.660156 C 28.246094 -48.472656 27.058594 -45.648438 25.964844 -42.914062 L 25.691406 -42.457031 C 24.691406 -39.90625 23.6875 -37.355469 22.777344 -34.804688 C 22.59375 -34.53125 22.320312 -33.527344 23.414062 -32.800781 C 23.597656 -32.617188 23.78125 -32.617188 23.960938 -32.617188 C 24.234375 -32.617188 24.601562 -32.800781 24.875 -32.980469 C 29.15625 -35.351562 32.707031 -49.109375 30.339844 -54.574219 C 29.609375 -56.398438 28.519531 -57.398438 27.152344 -57.398438 C 26.511719 -57.398438 25.875 -57.21875 25.238281 -56.851562 C 23.140625 -55.667969 21.683594 -53.847656 20.589844 -52.296875 C 12.664062 -40.816406 5.921875 -28.152344 0 -13.394531 C -3.460938 -4.554688 -7.835938 4.375 -17.859375 8.5625 C -17.949219 8.65625 -18.132812 8.746094 -18.3125 8.929688 C -18.496094 9.109375 -18.679688 9.203125 -18.859375 9.292969 C -19.496094 9.75 -19.863281 10.113281 -19.589844 10.75 C -19.222656 11.753906 -18.585938 11.84375 -17.585938 11.84375 C -17.3125 11.84375 -17.128906 11.84375 -16.855469 11.9375 C -14.667969 12.207031 -13.210938 12.847656 -12.480469 13.847656 C -11.753906 14.761719 -11.664062 16.125 -12.300781 17.859375 L -14.488281 24.507812 C -16.308594 29.703125 -18.132812 34.988281 -19.863281 40.453125 C -20.316406 41.820312 -20.773438 43.09375 -19.042969 44.554688 C -18.40625 45.101562 -17.765625 45.375 -17.128906 45.375 C -16.308594 45.375 -15.578125 44.917969 -14.851562 44.460938 C -6.378906 39.542969 -3.371094 26.695312 -8.199219 15.851562 L -8.292969 15.578125 C -8.5625 15.035156 -8.835938 14.488281 -8.65625 14.121094 C -8.019531 12.664062 -7.5625 11.117188 -7.105469 9.566406 C -6.105469 6.105469 -5.101562 2.550781 -1.730469 0.546875 C 9.109375 -6.105469 18.679688 -10.570312 28.425781 -13.300781 C 28.609375 -13.394531 28.792969 -13.394531 28.972656 -13.484375 C 29.519531 -13.574219 30.066406 -13.667969 30.15625 -14.03125 C 30.25 -14.121094 30.25 -14.214844 30.15625 -14.488281 C 29.882812 -14.941406 29.519531 -15.214844 28.882812 -15.214844 Z M -15.578125 37.265625 L -16.035156 36.992188 C -14.761719 30.613281 -12.847656 25.328125 -10.84375 19.863281 L -10.386719 18.679688 L -9.839844 18.859375 C -8.382812 25.691406 -10.570312 32.617188 -15.578125 37.265625 Z M -8.199219 5.375 C -9.292969 10.113281 -9.75 11.84375 -11.117188 11.84375 C -12.027344 11.84375 -13.121094 11.207031 -15.035156 10.023438 L -15.488281 9.75 L -8.019531 4.464844 Z M -8.199219 5.375 "/></g></g></g><g fill="#3edde9" fill-opacity="1"><g transform="translate(320.014007, 204.320291)"><g><path d="M 48.289062 -15.214844 C 48.199219 -15.214844 48.105469 -15.214844 47.925781 -15.214844 C 46.738281 -14.941406 45.648438 -14.394531 44.554688 -13.757812 C 44.097656 -13.484375 43.640625 -13.300781 43.1875 -13.121094 C 41.546875 -12.300781 39.996094 -11.480469 38.359375 -10.660156 C 35.351562 -9.019531 32.164062 -7.289062 29.0625 -5.375 L 26.058594 -3.460938 C 25.875 -3.28125 25.511719 -3.1875 25.148438 -3.007812 C 24.417969 -2.640625 23.324219 -2.09375 23.140625 -1.730469 L 22.59375 -2.003906 C 23.324219 -4.464844 24.234375 -6.832031 25.148438 -9.203125 C 25.691406 -10.570312 26.148438 -11.9375 26.695312 -13.300781 C 26.785156 -13.574219 26.878906 -13.847656 27.058594 -14.121094 C 27.605469 -15.488281 28.152344 -16.855469 26.785156 -18.132812 C 26.238281 -18.585938 25.691406 -18.859375 25.148438 -18.859375 C 24.234375 -18.859375 23.414062 -18.132812 22.777344 -17.585938 C 22.503906 -17.3125 22.320312 -17.128906 22.050781 -17.039062 C 19.863281 -15.308594 17.675781 -13.667969 15.488281 -11.9375 C 12.753906 -9.75 10.023438 -7.652344 7.105469 -5.558594 C 5.921875 -4.738281 4.738281 -3.917969 3.371094 -3.371094 C 2.734375 -3.097656 1.640625 -2.824219 0.730469 -2.824219 C -0.0898438 -2.824219 -0.730469 -3.097656 -1.09375 -3.554688 C -1.457031 -3.917969 -1.640625 -4.554688 -1.457031 -5.285156 C -1.09375 -6.652344 -0.363281 -7.652344 0.457031 -8.65625 C 0.730469 -9.109375 1.003906 -9.476562 1.277344 -9.929688 C 2.09375 -11.117188 2.914062 -12.300781 3.734375 -13.394531 C 4.375 -14.304688 4.921875 -15.125 5.558594 -15.945312 C 6.105469 -16.855469 6.285156 -17.492188 5.464844 -18.222656 C 5.011719 -18.679688 4.554688 -18.859375 4.101562 -18.859375 C 3.734375 -18.859375 3.371094 -18.679688 3.007812 -18.40625 C -0.546875 -15.214844 -4.101562 -11.570312 -4.738281 -5.921875 C -5.011719 -4.101562 -4.464844 -2.734375 -3.007812 -1.640625 C -2.09375 -1.003906 -1.183594 -0.636719 -0.273438 -0.636719 C 0.273438 -0.636719 0.820312 -0.730469 1.457031 -1.003906 C 4.648438 -2.003906 7.289062 -4.007812 9.75 -5.832031 L 11.117188 -6.925781 C 12.480469 -7.925781 13.757812 -9.019531 14.941406 -10.023438 C 17.949219 -12.574219 20.957031 -15.125 25.054688 -16.671875 L 25.785156 -17.039062 L 22.777344 -11.023438 C 20.589844 -6.742188 18.40625 -2.550781 16.398438 1.820312 C 14.761719 5.285156 12.574219 8.199219 9.65625 10.933594 C 0.636719 19.316406 -6.011719 27.789062 -10.660156 36.625 C -11.84375 38.8125 -12.9375 41.183594 -13.300781 44.007812 C -13.484375 45.28125 -13.484375 46.285156 -12.390625 47.285156 C -11.753906 47.925781 -11.023438 48.199219 -10.113281 48.199219 C -9.65625 48.199219 -9.203125 48.199219 -8.65625 48.015625 C -7.378906 47.652344 -6.285156 46.921875 -5.464844 46.285156 C -1.640625 43.1875 1.003906 39.179688 2.914062 36.078125 C 7.652344 28.425781 11.570312 19.953125 15.398438 11.84375 L 17.585938 7.199219 C 18.3125 5.738281 19.40625 4.375 20.683594 3.28125 C 24.507812 0.0898438 28.792969 -2.914062 33.894531 -6.011719 C 36.261719 -7.472656 38.632812 -8.835938 41 -10.203125 C 41.730469 -10.570312 42.457031 -10.933594 43.1875 -11.296875 C 44.644531 -12.027344 46.285156 -12.847656 47.558594 -13.847656 C 47.925781 -14.121094 48.472656 -15.035156 48.289062 -15.214844 Z M -7.652344 44.371094 C -7.835938 44.554688 -7.925781 44.644531 -8.019531 44.828125 C -8.5625 45.464844 -9.109375 46.101562 -10.023438 46.101562 C -10.386719 46.101562 -10.75 46.011719 -11.207031 45.648438 C -12.664062 44.644531 -12.207031 43.277344 -11.84375 42.183594 C -11.753906 42.003906 -11.664062 41.730469 -11.570312 41.546875 C -10.570312 37.265625 -8.292969 33.894531 -6.011719 30.703125 C -1.730469 24.691406 3.371094 19.222656 9.109375 14.304688 L 9.566406 14.941406 C 5.011719 25.328125 0.273438 36.078125 -7.652344 44.371094 Z M -7.652344 44.371094 "/></g></g></g><g clip-path="url(#50fa662ad0)"><path fill="#3edde9" d="M 329.433594 151.675781 C 340.875 153.011719 341.710938 154.042969 341.816406 169.085938 C 341.816406 169.152344 341.933594 169.15625 341.9375 169.089844 C 343.183594 154.097656 344.097656 153.132812 355.609375 152.671875 C 355.683594 152.667969 355.6875 152.578125 355.613281 152.570312 C 344.167969 151.234375 343.332031 150.203125 343.230469 135.160156 C 343.230469 135.09375 343.113281 135.089844 343.105469 135.15625 C 341.859375 150.148438 340.949219 151.113281 329.4375 151.574219 C 329.359375 151.578125 329.359375 151.667969 329.433594 151.675781 Z M 329.433594 151.675781 " fill-opacity="1" fill-rule="nonzero"/></g><g clip-path="url(#a2cc840832)"><path fill="#3edde9" d="M 327.113281 141.519531 C 331.203125 141.996094 331.5 142.367188 331.539062 147.742188 C 331.539062 147.765625 331.578125 147.769531 331.582031 147.746094 C 332.027344 142.386719 332.351562 142.042969 336.46875 141.875 C 336.496094 141.875 336.496094 141.84375 336.46875 141.839844 C 332.378906 141.363281 332.082031 140.996094 332.042969 135.617188 C 332.042969 135.59375 332 135.59375 332 135.617188 C 331.554688 140.976562 331.226562 141.320312 327.113281 141.484375 C 327.085938 141.484375 327.085938 141.519531 327.113281 141.519531 Z M 327.113281 141.519531 " fill-opacity="1" fill-rule="nonzero"/></g><path fill="#3edde9" d="M 346.363281 162.386719 C 349.167969 162.714844 349.375 162.96875 349.398438 166.660156 C 349.398438 166.675781 349.429688 166.675781 349.429688 166.660156 C 349.734375 162.980469 349.957031 162.746094 352.78125 162.632812 C 352.800781 162.632812 352.800781 162.609375 352.78125 162.605469 C 349.976562 162.28125 349.769531 162.027344 349.746094 158.335938 C 349.746094 158.320312 349.714844 158.320312 349.714844 158.335938 C 349.410156 162.011719 349.1875 162.25 346.363281 162.363281 C 346.34375 162.363281 346.34375 162.386719 346.363281 162.386719 Z M 346.363281 162.386719 " fill-opacity="1" fill-rule="nonzero"/><g clip-path="url(#6bfada0fa7)"><path fill="#3edde9" d="M 349.667969 146.777344 C 352.105469 147.0625 352.285156 147.28125 352.304688 150.488281 C 352.304688 150.5 352.332031 150.5 352.332031 150.488281 C 352.597656 147.292969 352.792969 147.089844 355.246094 146.988281 C 355.253906 146.992188 355.257812 146.988281 355.257812 146.980469 C 355.257812 146.972656 355.253906 146.96875 355.246094 146.96875 C 352.808594 146.683594 352.628906 146.464844 352.609375 143.257812 C 352.609375 143.246094 352.582031 143.246094 352.582031 143.257812 C 352.316406 146.453125 352.121094 146.65625 349.667969 146.757812 C 349.660156 146.753906 349.65625 146.757812 349.65625 146.765625 C 349.65625 146.773438 349.660156 146.777344 349.667969 146.777344 Z M 349.667969 146.777344 " fill-opacity="1" fill-rule="nonzero"/></g><g clip-path="url(#f253e40ad1)"><path fill="#3edde9" d="M 304.632812 117.570312 C 316.078125 118.902344 316.910156 119.933594 317.015625 134.980469 C 317.015625 135.042969 317.132812 135.050781 317.140625 134.984375 C 318.382812 119.992188 319.296875 119.027344 330.808594 118.566406 C 330.882812 118.5625 330.886719 118.472656 330.8125 118.464844 C 319.367188 117.128906 318.53125 116.097656 318.429688 101.054688 C 318.429688 100.988281 318.3125 100.984375 318.304688 101.046875 C 317.058594 116.042969 316.148438 117.007812 304.636719 117.46875 C 304.5625 117.46875 304.558594 117.558594 304.632812 117.570312 Z M 304.632812 117.570312 " fill-opacity="1" fill-rule="nonzero"/></g><g clip-path="url(#ce2577e957)"><path fill="#3edde9" d="M 302.3125 107.414062 C 306.402344 107.890625 306.699219 108.257812 306.738281 113.636719 C 306.738281 113.660156 306.78125 113.660156 306.78125 113.636719 C 307.226562 108.28125 307.554688 107.933594 311.667969 107.769531 C 311.695312 107.769531 311.695312 107.738281 311.667969 107.734375 C 307.578125 107.257812 307.28125 106.886719 307.242188 101.511719 C 307.242188 101.488281 307.199219 101.484375 307.199219 101.507812 C 306.753906 106.867188 306.425781 107.214844 302.3125 107.378906 C 302.285156 107.378906 302.285156 107.410156 302.3125 107.414062 Z M 302.3125 107.414062 " fill-opacity="1" fill-rule="nonzero"/></g><path fill="#3edde9" d="M 321.5625 128.28125 C 324.367188 128.609375 324.574219 128.863281 324.597656 132.550781 C 324.597656 132.566406 324.628906 132.570312 324.628906 132.550781 C 324.933594 128.875 325.15625 128.636719 327.980469 128.523438 C 328 128.523438 328 128.503906 327.984375 128.5 C 325.175781 128.171875 324.972656 127.917969 324.945312 124.230469 C 324.945312 124.214844 324.917969 124.210938 324.914062 124.230469 C 324.609375 127.90625 324.386719 128.144531 321.5625 128.257812 C 321.542969 128.257812 321.542969 128.277344 321.5625 128.28125 Z M 321.5625 128.28125 " fill-opacity="1" fill-rule="nonzero"/><g clip-path="url(#d2be33609a)"><path fill="#3edde9" d="M 324.867188 112.671875 C 327.304688 112.953125 327.484375 113.175781 327.507812 116.378906 C 327.507812 116.394531 327.53125 116.394531 327.53125 116.378906 C 327.796875 113.1875 327.992188 112.980469 330.445312 112.882812 C 330.453125 112.882812 330.457031 112.878906 330.457031 112.871094 C 330.457031 112.863281 330.453125 112.859375 330.445312 112.863281 C 328.007812 112.578125 327.832031 112.355469 327.808594 109.152344 C 327.808594 109.136719 327.78125 109.136719 327.78125 109.152344 C 327.515625 112.34375 327.320312 112.550781 324.871094 112.648438 C 324.863281 112.648438 324.859375 112.652344 324.855469 112.660156 C 324.855469 112.667969 324.859375 112.671875 324.867188 112.671875 Z M 324.867188 112.671875 " fill-opacity="1" fill-rule="nonzero"/></g><g clip-path="url(#934d20a505)"><path fill="#3edde9" d="M 276.023438 134.621094 C 287.46875 135.957031 288.304688 136.988281 288.40625 152.03125 C 288.40625 152.097656 288.527344 152.101562 288.53125 152.035156 C 289.777344 137.042969 290.6875 136.078125 302.203125 135.617188 C 302.277344 135.617188 302.28125 135.527344 302.207031 135.515625 C 290.761719 134.183594 289.925781 133.152344 289.824219 118.105469 C 289.824219 118.042969 289.703125 118.035156 289.699219 118.101562 C 288.453125 133.09375 287.542969 134.058594 276.027344 134.519531 C 275.953125 134.523438 275.949219 134.613281 276.023438 134.621094 Z M 276.023438 134.621094 " fill-opacity="1" fill-rule="nonzero"/></g><g clip-path="url(#8cc439405d)"><path fill="#3edde9" d="M 273.703125 124.46875 C 277.792969 124.945312 278.09375 125.3125 278.128906 130.691406 C 278.128906 130.714844 278.171875 130.714844 278.175781 130.691406 C 278.621094 125.332031 278.945312 124.988281 283.0625 124.824219 C 283.085938 124.824219 283.089844 124.789062 283.0625 124.789062 C 278.972656 124.308594 278.671875 123.941406 278.636719 118.566406 C 278.636719 118.539062 278.59375 118.539062 278.59375 118.5625 C 278.148438 123.921875 277.820312 124.265625 273.707031 124.429688 C 273.679688 124.433594 273.679688 124.464844 273.703125 124.46875 Z M 273.703125 124.46875 " fill-opacity="1" fill-rule="nonzero"/></g><path fill="#3edde9" d="M 292.953125 145.335938 C 295.761719 145.660156 295.964844 145.914062 295.992188 149.605469 C 295.992188 149.621094 296.019531 149.621094 296.023438 149.605469 C 296.328125 145.929688 296.550781 145.691406 299.375 145.578125 C 299.394531 145.578125 299.394531 145.554688 299.375 145.554688 C 296.570312 145.226562 296.363281 144.972656 296.339844 141.285156 C 296.339844 141.265625 296.308594 141.265625 296.308594 141.28125 C 296.003906 144.960938 295.777344 145.195312 292.953125 145.308594 C 292.9375 145.3125 292.9375 145.332031 292.953125 145.335938 Z M 292.953125 145.335938 " fill-opacity="1" fill-rule="nonzero"/><path fill="#3edde9" d="M 296.261719 129.722656 C 298.699219 130.007812 298.878906 130.226562 298.898438 133.433594 C 298.898438 133.445312 298.925781 133.449219 298.925781 133.433594 C 299.191406 130.238281 299.386719 130.035156 301.835938 129.9375 C 301.84375 129.9375 301.851562 129.933594 301.851562 129.925781 C 301.851562 129.917969 301.847656 129.914062 301.839844 129.914062 C 299.402344 129.628906 299.222656 129.410156 299.199219 126.207031 C 299.199219 126.191406 299.175781 126.191406 299.175781 126.203125 C 298.910156 129.398438 298.714844 129.605469 296.261719 129.703125 C 296.253906 129.703125 296.25 129.703125 296.25 129.714844 C 296.25 129.722656 296.253906 129.722656 296.261719 129.722656 Z M 296.261719 129.722656 " fill-opacity="1" fill-rule="nonzero"/></svg>